  http://www.imdb.com/title/tt2101341/



In New York City, a crime lord's right-hand man is seduced by a woman seeking retribution. 



Director:
 Niels Arden Oplev 

Writer:
 J.H. Wyman 

Stars:
 Colin Farrell, Noomi Rapace, Terrence Howard 

Genres:
  Action |  Crime |  Drama |  Thriller 

Country:
 USA 


Format                                   : AVI
Format/Info                              : Audio Video Interleave
Format profile                           : OpenDML
Format settings                          : rec
File size                                : 655 MiB
Duration                                 : 1h 30mn
Overall bit rate                         : 1 017 Kbps
Writing application                      : AVI-Mux GUI 1.17.8.3, Feb 16 201019:42:50

Video
ID                                       : 0
Format                                   : MPEG-4 Visual
Format profile                           : Advanced Simple@L5
Format settings, BVOP                    : 1
Format settings, QPel                    : No
Format settings, GMC                     : No warppoints
Format settings, Matrix                  : Default (H.263)
Muxing mode                              : Packed bitstream
Codec ID                                 : XVID
Codec ID/Hint                            : XviD
Duration                                 : 1h 30mn
Bit rate                                 : 820 Kbps
Width                                    : 720 pixels
Height                                   : 304 pixels
Display aspect ratio                     : 2.35:1
Frame rate                               : 25.000 fps
Color space                              : YUV
Chroma subsampling                       : 4:2:0
Bit depth                                : 8 bits
Scan type                                : Progressive
Compression mode                         : Lossy
Bits/(Pixel*Frame)                       : 0.150
Stream size                              : 528 MiB (81%)
Writing library                          : XviD 64

Audio
ID                                       : 1
Format                                   : AC-3
Format/Info                              : Audio Coding 3
Mode extension                           : CM (complete main)
Format settings, Endianness              : Big
Codec ID                                 : 2000
Duration                                 : 1h 30mn
Bit rate mode                            : Constant
Bit rate                                 : 192 Kbps
Channel(s)                               : 2 channels
Channel positions                        : Front: L R
Sampling rate                            : 48.0 KHz
Bit depth                                : 16 bits
Compression mode                         : Lossy
Stream size                              : 124 MiB (19%)
Alignment                                : Aligned on interleaves
Interleave, duration                     : 64 ms (1.60 video frames)
Interleave, preload duration             : 192 ms
Title                                    : Dead Man Down-AUDIO






    	http://www.shotpix.com/images/41668223174328176634.png


    	http://www.shotpix.com/images/09850689437794266508.png
    	http://www.shotpix.com/images/16104982552252036190.png
    	http://www.shotpix.com/images/84919388558931062014.png